<svg
  xmlns="http://www.w3.org/2000/svg"
  viewBox="1.408 -23.488 153.76000000000002 23.872"
>
  <style>
    path {
      stroke: black;
      fill: none;
    }
  </style>
  <path
    d="M10.56 0.38L10.56 0.38Q8.83 0.38 6.18-0.26L6.18-0.26Q4.51 0.19 3.07 0.19Q1.63 0.19 1.41 0.10L1.41 0.10Q1.63-1.82 3.31-9.36Q4.99-16.90 4.99-18.82L4.99-18.82Q4.99-19.20 4.58-19.84Q4.16-20.48 3.74-20.93L3.74-20.93L3.33-21.38L3.42-21.86Q7.62-22.72 12.45-22.72L12.45-22.72Q15.10-22.72 16.82-21.46Q18.53-20.19 18.53-17.92L18.53-17.92Q18.53-13.54 13.18-11.84L13.18-11.84Q15.33-11.58 16.78-10.22Q18.24-8.86 18.24-6.40L18.24-6.40Q18.24-3.39 16.06-1.50Q13.89 0.38 10.56 0.38Z"
  ></path>
  <path
    d="M9.98-10.98L9.98-10.98Q9.09-10.98 8.38-10.82L8.38-10.82Q7.01-4.74 6.62-2.34L6.62-2.34Q7.42-1.79 9.14-1.79Q10.85-1.79 12.06-3.15Q13.28-4.51 13.28-7.07L13.28-7.07Q13.28-10.98 9.98-10.98Z"
  ></path>
  <path
    d="M11.78-20.74L11.78-20.74Q10.56-20.74 10.34-20.51L10.34-20.51Q9.89-17.63 8.86-12.96L8.86-12.96Q10.14-12.96 10.66-13.12Q11.17-13.28 11.57-13.54Q11.97-13.79 12.48-14.34L12.48-14.34Q13.60-15.52 13.60-18.13Q13.60-20.74 11.78-20.74Z"
  ></path>
  <path
    d="M29.41-13.25L29.41-13.25Q29.47-13.31 29.76-14.08L29.76-14.08Q31.26-14.08 33.79-13.18L33.79-13.18Q32.99-10.53 32.51-7.63Q32.03-4.74 32.03-3.50Q32.03-2.27 32.29-2.27L32.29-2.27Q32.48-2.27 33.70-2.88L33.70-2.88L34.08-3.07L34.66-1.95Q34.37-1.70 33.90-1.31Q33.44-0.93 32.16-0.27Q30.88 0.38 29.86 0.38L29.86 0.38Q27.87 0.38 27.55-1.41L27.55-1.41Q25.50 0.38 23.86 0.38Q22.21 0.38 21.07-0.90Q19.94-2.18 19.94-4.93L19.94-4.93Q19.94-9.22 21.70-11.70Q23.46-14.18 25.95-14.18L25.95-14.18Q27.74-14.18 29.41-13.25Z"
  ></path>
  <path
    d="M25.76-2.34L25.76-2.34Q26.53-2.34 27.49-2.94L27.49-2.94Q27.71-7.46 28.99-11.87L28.99-11.87Q28.03-12.29 27.36-12.29L27.36-12.29Q26.21-12.29 25.39-10.03Q24.58-7.78 24.58-5.06Q24.58-2.34 25.76-2.34Z"
  ></path>
  <path
    d="M36.10 0.10L36.10 0.10L35.49 0.10Q35.49-1.41 36.40-5.66Q37.31-9.92 37.31-10.50L37.31-10.50Q37.31-11.55 36.42-12.74L36.42-12.74L36.13-13.12L36.16-13.54Q37.89-14.02 41.70-14.02L41.70-14.02Q42.11-13.47 42.14-12.03L42.14-12.03Q44.93-14.18 46.85-14.18L46.85-14.18Q48-14.18 48.69-13.38Q49.38-12.58 49.38-11.38Q49.38-10.18 48.64-7.23Q47.90-4.29 47.90-3.28Q47.90-2.27 48.16-2.27L48.16-2.27Q48.35-2.27 49.50-2.88L49.50-2.88L49.89-3.07L50.46-1.95Q50.18-1.70 49.70-1.31Q49.22-0.93 47.92-0.27Q46.62 0.38 45.60 0.38L45.60 0.38Q43.26 0.38 43.26-2.27L43.26-2.27Q43.26-3.39 43.98-6.40Q44.70-9.41 44.70-10.27Q44.70-11.14 44.16-11.14L44.16-11.14Q43.23-11.14 41.89-10.34L41.89-10.34Q41.79-9.79 41.25-7.46L41.25-7.46Q40.13-2.43 40.13-0.35L40.13-0.35Q39.01 0.10 36.10 0.10Z"
  ></path>
  <path
    d="M61.02-13.25L61.02-13.25Q61.09-13.31 61.38-14.08L61.38-14.08Q62.88-14.08 65.41-13.18L65.41-13.18Q64.61-10.53 64.13-7.63Q63.65-4.74 63.65-3.50Q63.65-2.27 63.90-2.27L63.90-2.27Q64.10-2.27 65.31-2.88L65.31-2.88L65.70-3.07L66.27-1.95Q65.98-1.70 65.52-1.31Q65.06-0.93 63.78-0.27Q62.50 0.38 61.47 0.38L61.47 0.38Q59.49 0.38 59.17-1.41L59.17-1.41Q57.12 0.38 55.47 0.38Q53.82 0.38 52.69-0.90Q51.55-2.18 51.55-4.93L51.55-4.93Q51.55-9.22 53.31-11.70Q55.07-14.18 57.57-14.18L57.57-14.18Q59.36-14.18 61.02-13.25Z"
  ></path>
  <path
    d="M57.38-2.34L57.38-2.34Q58.14-2.34 59.10-2.94L59.10-2.94Q59.33-7.46 60.61-11.87L60.61-11.87Q59.65-12.29 58.98-12.29L58.98-12.29Q57.82-12.29 57.01-10.03Q56.19-7.78 56.19-5.06Q56.19-2.34 57.38-2.34Z"
  ></path>
  <path
    d="M67.71 0.10L67.71 0.10L67.10 0.10Q67.10-1.41 68.02-5.66Q68.93-9.92 68.93-10.50L68.93-10.50Q68.93-11.55 68.03-12.74L68.03-12.74L67.74-13.12L67.78-13.54Q69.50-14.02 73.31-14.02L73.31-14.02Q73.73-13.47 73.76-12.03L73.76-12.03Q76.54-14.18 78.46-14.18L78.46-14.18Q79.62-14.18 80.30-13.38Q80.99-12.58 80.99-11.38Q80.99-10.18 80.26-7.23Q79.52-4.29 79.52-3.28Q79.52-2.27 79.78-2.27L79.78-2.27Q79.97-2.27 81.12-2.88L81.12-2.88L81.50-3.07L82.08-1.95Q81.79-1.70 81.31-1.31Q80.83-0.93 79.54-0.27Q78.24 0.38 77.22 0.38L77.22 0.38Q74.88 0.38 74.88-2.27L74.88-2.27Q74.88-3.39 75.60-6.40Q76.32-9.41 76.32-10.27Q76.32-11.14 75.78-11.14L75.78-11.14Q74.85-11.14 73.50-10.34L73.50-10.34Q73.41-9.79 72.86-7.46L72.86-7.46Q71.74-2.43 71.74-0.35L71.74-0.35Q70.62 0.10 67.71 0.10Z"
  ></path>
  <path
    d="M92.64-13.25L92.64-13.25Q92.70-13.31 92.99-14.08L92.99-14.08Q94.50-14.08 97.02-13.18L97.02-13.18Q96.22-10.53 95.74-7.63Q95.26-4.74 95.26-3.50Q95.26-2.27 95.52-2.27L95.52-2.27Q95.71-2.27 96.93-2.88L96.93-2.88L97.31-3.07L97.89-1.95Q97.60-1.70 97.14-1.31Q96.67-0.93 95.39-0.27Q94.11 0.38 93.09 0.38L93.09 0.38Q91.10 0.38 90.78-1.41L90.78-1.41Q88.74 0.38 87.09 0.38Q85.44 0.38 84.30-0.90Q83.17-2.18 83.17-4.93L83.17-4.93Q83.17-9.22 84.93-11.70Q86.69-14.18 89.18-14.18L89.18-14.18Q90.98-14.18 92.64-13.25Z"
  ></path>
  <path
    d="M88.99-2.34L88.99-2.34Q89.76-2.34 90.72-2.94L90.72-2.94Q90.94-7.46 92.22-11.87L92.22-11.87Q91.26-12.29 90.59-12.29L90.59-12.29Q89.44-12.29 88.62-10.03Q87.81-7.78 87.81-5.06Q87.81-2.34 88.99-2.34Z"
  ></path>
  <path
    d="M111.42-22.56L111.42-22.56L117.70-22.37L120.99-22.43Q121.09-21.95 121.09-21.15Q121.09-20.35 120.85-20Q120.61-19.65 120.03-19.65Q119.46-19.65 117.58-19.81Q115.71-19.97 114.82-19.97L114.82-19.97L113.66-19.90Q113.54-18.69 112.13-12.13L112.13-12.13Q114.56-12.35 116.19-12.35Q117.82-12.35 118.72-12.10L118.72-12.10Q118.66-10.75 118.14-9.79L118.14-9.79Q116.77-10.08 114.88-10.08Q112.99-10.08 111.68-9.89L111.68-9.89Q110.50-4.10 110.50-1.09L110.50-1.09L110.50-0.54Q109.34 0.10 105.63 0.10L105.63 0.10L105.31 0.10Q105.31-2.08 106.80-8.96Q108.29-15.84 108.61-18.85L108.61-18.85Q108.61-19.36 108.29-20.08Q107.97-20.80 107.62-21.25L107.62-21.25L107.30-21.70L107.39-22.18Q109.12-22.53 111.42-22.56Z"
  ></path>
  <path
    d="M126.88-12.19Q126.88-10.85 126.02-7.57Q125.15-4.29 125.15-3.28Q125.15-2.27 125.44-2.27L125.44-2.27Q125.63-2.27 126.91-2.88L126.91-2.88L127.30-3.07L127.84-1.95Q127.55-1.70 127.07-1.31Q126.59-0.93 125.28-0.27Q123.97 0.38 122.85 0.38Q121.73 0.38 121.09-0.30Q120.45-0.99 120.45-2.16Q120.45-3.33 121.25-6.32Q122.05-9.31 122.05-10.21L122.05-10.21Q122.05-11.55 121.22-12.74L121.22-12.74L120.93-13.12L120.96-13.54Q122.66-14.02 126.46-14.02L126.46-14.02Q126.88-13.54 126.88-12.19Z"
  ></path>
  <path
    d="M123.23-17.52Q122.59-18.14 122.59-19.20Q122.59-20.26 123.47-21.06Q124.35-21.86 125.50-21.86Q126.66-21.86 127.30-21.22Q127.94-20.58 127.94-19.54Q127.94-18.50 127.02-17.70Q126.11-16.90 124.99-16.90Q123.87-16.90 123.23-17.52Z"
  ></path>
  <path
    d="M138.85-4.19L138.85-4.19Q138.85-2.18 137.07-0.90Q135.30 0.38 133.02 0.38Q130.75 0.38 129.42-0.58Q128.10-1.54 128.10-2.27L128.10-2.27Q128.10-2.72 129.22-3.73Q130.34-4.74 131.10-4.96L131.10-4.96Q132.70-3.78 133.73-1.22L133.73-1.22Q134.91-1.31 134.91-2.34L134.91-2.34Q134.91-3.81 132.32-6.51Q129.73-9.22 129.73-10.82Q129.73-12.42 131.17-13.30Q132.61-14.18 134.64-14.18Q136.67-14.18 137.70-13.46Q138.72-12.74 138.72-11.50Q138.72-10.27 136.77-8.10L136.77-8.10Q136.99-7.87 137.34-7.50Q137.70-7.14 138.27-6.11Q138.85-5.09 138.85-4.19Z"
  ></path>
  <path
    d="M135.78-9.22Q137.12-10.37 137.12-11.49Q137.12-12.61 135.58-12.61L135.58-12.61Q134.85-12.61 134.37-12.30Q133.89-12 133.89-11.62L133.89-11.62Q133.89-10.91 135.30-9.63L135.30-9.63L135.78-9.22Z"
  ></path>
  <path
    d="M144.06-21.12L144.06-21.12Q144.06-22.18 143.87-22.62L143.87-22.62Q146.37-23.49 148.58-23.49L148.58-23.49Q148.86-23.20 148.86-22.02L148.86-22.02Q148.86-19.90 147.07-12.29L147.07-12.29Q149.66-14.18 151.62-14.18L151.62-14.18Q152.83-14.18 153.46-13.41Q154.08-12.64 154.08-11.38Q154.08-10.11 153.34-7.25Q152.61-4.38 152.61-3.33Q152.61-2.27 152.86-2.27Q153.12-2.27 154.21-2.85L154.21-2.85L154.59-3.04L155.17-1.92Q154.88-1.66 154.40-1.28Q153.92-0.90 152.64-0.26Q151.36 0.38 150.29 0.38Q149.22 0.38 148.58-0.30Q147.94-0.99 147.94-2.16Q147.94-3.33 148.66-6.42Q149.38-9.50 149.38-10.32Q149.38-11.14 148.70-11.14L148.70-11.14Q147.87-11.14 146.62-10.43L146.62-10.43Q144.86-2.69 144.86-0.38L144.86-0.38Q143.52 0.13 140.29 0.13L140.29 0.13Q140.26-0.42 140.26-0.83L140.26-0.83Q140.26-2.21 142.16-10.24Q144.06-18.27 144.06-21.12Z"
  ></path>
</svg>
